<svg xmlns="http://www.w3.org/2000/svg" xmlns:xlink="http://www.w3.org/1999/xlink" width="861" zoomAndPan="magnify" viewBox="0 0 645.75 257.250001" height="343" preserveAspectRatio="xMidYMid meet" version="1.0"><defs><g/><clipPath id="46ebe97c1d"><path d="M 53.226562 163 L 586 163 L 586 256 L 53.226562 256 Z M 53.226562 163 " clip-rule="nonzero"/></clipPath><clipPath id="242317b732"><path d="M 334 126.871094 L 592 126.871094 L 592 219 L 334 219 Z M 334 126.871094 " clip-rule="nonzero"/></clipPath></defs><g fill="#fafbfd" fill-opacity="1"><g transform="translate(270.455452, 69.817697)"><g><path d="M 50.019531 -11.492188 C 49.75 -15.917969 49.261719 -20.449219 48.832031 -24.820312 L 48.507812 -28.113281 C 47.914062 -33.5625 46.886719 -37.824219 45.214844 -41.601562 C 44.246094 -43.597656 42.789062 -44.945312 41.0625 -45.269531 C 39.335938 -45.648438 37.5 -45 35.828125 -43.488281 C 34.910156 -42.625 34.101562 -41.601562 33.453125 -40.628906 C 32.210938 -38.523438 31.132812 -36.476562 30.269531 -34.476562 C 29.460938 -32.75 28.757812 -30.917969 28.003906 -29.027344 C 27.679688 -28.164062 27.355469 -27.300781 26.976562 -26.4375 L 26.546875 -25.25 L 25.953125 -26.386719 C 25.414062 -27.300781 24.980469 -28.164062 24.496094 -29.082031 C 23.472656 -31.078125 22.5 -32.96875 21.367188 -34.75 C 19.425781 -37.660156 17.859375 -39.660156 16.132812 -41.222656 C 15.109375 -42.140625 13.921875 -42.625 12.789062 -42.625 C 12.570312 -42.625 12.300781 -42.570312 12.085938 -42.570312 C 10.683594 -42.300781 9.386719 -41.332031 8.578125 -39.820312 C 7.609375 -38.039062 6.90625 -36.097656 6.527344 -34.261719 C 4.964844 -26.007812 3.507812 -17.859375 2.210938 -9.929688 C 1.886719 -8.148438 1.886719 -6.097656 2.210938 -3.886719 C 2.480469 -1.671875 4.207031 -0.0546875 6.367188 0 C 8.472656 0.109375 10.199219 -1.296875 10.84375 -3.507812 C 11.167969 -4.695312 11.277344 -5.988281 11.4375 -7.230469 C 11.816406 -11.0625 12.195312 -14.839844 12.625 -18.613281 C 12.894531 -21.367188 13.164062 -24.066406 13.433594 -26.761719 C 13.488281 -27.519531 13.652344 -28.273438 13.757812 -28.976562 L 14.027344 -31.078125 L 14.839844 -30.378906 C 15.539062 -29.785156 15.863281 -29.191406 16.078125 -28.652344 C 16.566406 -27.570312 17.050781 -26.4375 17.535156 -25.304688 C 18.453125 -23.148438 19.371094 -20.882812 20.394531 -18.667969 C 21.3125 -16.726562 22.230469 -14.675781 23.472656 -12.949219 C 24.550781 -11.4375 26.0625 -10.628906 27.679688 -10.683594 C 29.296875 -10.792969 30.808594 -11.761719 31.78125 -13.433594 C 32.535156 -14.675781 33.023438 -16.132812 33.5625 -17.535156 L 33.613281 -17.699219 C 34.476562 -20.125 35.339844 -22.554688 36.203125 -25.035156 C 36.691406 -26.4375 37.175781 -27.839844 37.660156 -29.246094 C 37.824219 -29.621094 37.984375 -30 38.148438 -30.324219 L 38.847656 -31.941406 L 39.386719 -30.753906 C 39.765625 -30 39.820312 -29.296875 39.820312 -28.652344 C 39.820312 -27.464844 39.820312 -26.277344 39.820312 -25.144531 C 39.765625 -22.660156 39.710938 -20.125 39.875 -17.644531 C 40.199219 -12.894531 40.683594 -9.011719 41.386719 -5.394531 C 41.871094 -3.074219 43.8125 -2.050781 45.484375 -2.105469 C 47.429688 -2.160156 48.992188 -3.507812 49.476562 -5.613281 C 49.964844 -7.609375 50.179688 -9.660156 50.019531 -11.492188 Z M 50.019531 -11.492188 "/></g></g></g><g fill="#fafbfd" fill-opacity="1"><g transform="translate(322.591027, 69.817697)"><g><path d="M 33.074219 -40.414062 C 31.402344 -41.601562 29.191406 -41.222656 27.519531 -39.441406 C 26.976562 -38.847656 26.492188 -38.148438 26.007812 -37.445312 C 25.683594 -37.015625 25.414062 -36.636719 25.089844 -36.257812 C 23.632812 -34.316406 22.121094 -32.375 20.558594 -30.324219 L 17.96875 -26.976562 L 17.480469 -27.734375 C 16.941406 -28.703125 16.402344 -29.621094 15.863281 -30.484375 C 14.675781 -32.429688 13.597656 -34.261719 12.464844 -35.988281 L 12.300781 -36.203125 C 10.953125 -38.253906 9.605469 -40.414062 7.984375 -42.25 C 7.175781 -43.164062 6.152344 -43.542969 5.234375 -43.542969 C 4.585938 -43.542969 3.992188 -43.328125 3.507812 -43.058594 C 2.210938 -42.25 1.726562 -40.738281 2.105469 -38.742188 C 2.210938 -38.363281 2.265625 -37.929688 2.429688 -37.609375 C 2.859375 -36.582031 3.238281 -35.558594 3.613281 -34.53125 C 4.53125 -32.050781 5.503906 -29.566406 6.636719 -27.195312 C 8.523438 -23.253906 11.167969 -20.179688 14.40625 -18.074219 C 15.054688 -17.644531 15.429688 -16.566406 15.378906 -15.808594 C 15.324219 -14.40625 15.160156 -13.058594 15.054688 -11.65625 C 14.890625 -9.605469 14.675781 -7.445312 14.675781 -5.289062 C 14.675781 -3.453125 15.269531 -1.886719 16.347656 -0.808594 C 17.160156 0 18.183594 0.378906 19.261719 0.378906 C 21.90625 0.324219 23.632812 -1.996094 23.523438 -5.339844 C 23.472656 -9.011719 23.203125 -12.839844 22.714844 -17.105469 C 22.554688 -18.722656 22.824219 -19.800781 23.847656 -21.152344 C 26.925781 -25.199219 30.539062 -30 33.886719 -35.070312 C 35.339844 -37.285156 34.476562 -39.386719 33.074219 -40.414062 Z M 33.074219 -40.414062 "/></g></g></g><g fill="#fafbfd" fill-opacity="1"><g transform="translate(359.281536, 69.817697)"><g/></g></g><g fill="#fafbfd" fill-opacity="1"><g transform="translate(86.675212, 145.087744)"><g><path d="M 32.535156 -9.441406 C 29.296875 -12.085938 26.0625 -14.675781 22.769531 -17.320312 C 21.257812 -18.507812 19.75 -19.695312 18.238281 -20.933594 C 18.023438 -21.097656 17.859375 -21.257812 17.589844 -21.476562 L 16.671875 -22.285156 L 18.292969 -23.6875 C 19.101562 -24.335938 19.800781 -24.929688 20.558594 -25.523438 C 21.746094 -26.4375 22.878906 -27.355469 24.011719 -28.273438 C 26.222656 -30 28.542969 -31.78125 30.753906 -33.667969 C 32.699219 -35.289062 33.128906 -37.660156 31.78125 -39.335938 C 30.484375 -41.007812 28.21875 -41.113281 25.953125 -39.605469 L 25.84375 -39.550781 C 25.738281 -39.441406 25.574219 -39.386719 25.46875 -39.28125 L 11.601562 -26.707031 C 11.4375 -26.601562 11.277344 -26.492188 11.0625 -26.332031 L 9.929688 -25.523438 L 9.820312 -26.492188 C 9.710938 -27.03125 9.660156 -27.519531 9.660156 -28.003906 C 9.550781 -28.976562 9.441406 -29.890625 9.335938 -30.753906 L 9.117188 -32.105469 C 8.847656 -33.832031 8.632812 -35.664062 8.203125 -37.390625 C 7.878906 -38.742188 6.90625 -39.550781 5.558594 -39.550781 C 4.207031 -39.605469 3.238281 -38.847656 2.75 -37.339844 C 2.429688 -36.257812 2.210938 -35.339844 2.210938 -34.53125 L 2.210938 -33.992188 C 2.105469 -25.628906 1.941406 -16.996094 1.996094 -8.523438 C 1.996094 -7.015625 2.320312 -5.339844 3.023438 -3.507812 C 3.613281 -1.941406 5.234375 -0.972656 6.960938 -1.1875 C 8.742188 -1.402344 10.035156 -2.699219 10.359375 -4.53125 C 10.523438 -5.449219 10.523438 -6.421875 10.523438 -7.339844 L 10.523438 -7.660156 C 10.574219 -9.710938 10.574219 -11.761719 10.574219 -13.757812 L 10.574219 -16.457031 L 11.816406 -17.320312 L 12.140625 -16.78125 C 12.195312 -16.617188 12.300781 -16.511719 12.355469 -16.347656 C 12.464844 -16.132812 12.625 -15.863281 12.789062 -15.703125 C 14.566406 -13.597656 16.347656 -11.492188 18.183594 -9.386719 L 19.855469 -7.390625 C 22.339844 -4.476562 24.820312 -2.589844 27.625 -1.457031 C 30.378906 -0.324219 32.859375 -0.917969 34.15625 -3.023438 C 35.339844 -5.125 34.75 -7.609375 32.535156 -9.441406 Z M 32.535156 -9.441406 "/></g></g></g><g fill="#fafbfd" fill-opacity="1"><g transform="translate(123.445091, 145.087744)"><g><path d="M 41.222656 -8.796875 C 41.0625 -9.550781 40.898438 -10.46875 40.628906 -11.332031 C 37.660156 -21.476562 32.535156 -30.648438 27.519531 -39.117188 C 26.277344 -41.222656 24.660156 -42.25 22.824219 -42.25 C 21.746094 -42.25 20.613281 -41.925781 19.371094 -41.222656 C 17.859375 -40.304688 16.566406 -39.171875 15.808594 -38.039062 C 14.191406 -35.71875 12.839844 -33.128906 11.761719 -30.863281 C 9.820312 -26.816406 8.308594 -23.417969 7.015625 -20.179688 C 5.019531 -15.160156 3.507812 -10.898438 2.210938 -6.851562 C 1.457031 -4.585938 2.644531 -2.75 4.046875 -2.105469 C 5.773438 -1.402344 7.445312 -2.160156 8.6875 -4.207031 C 9.28125 -5.234375 9.820312 -6.3125 10.359375 -7.390625 C 10.84375 -8.363281 11.386719 -9.441406 11.976562 -10.414062 C 12.355469 -11.113281 13.382812 -11.816406 14.136719 -11.816406 C 16.941406 -11.761719 19.75 -11.65625 22.5 -11.546875 C 24.550781 -11.4375 26.65625 -11.386719 28.703125 -11.277344 C 30.59375 -11.222656 31.132812 -10.144531 31.457031 -9.011719 C 31.886719 -7.390625 32.375 -6.152344 32.96875 -5.125 C 34.101562 -3.183594 36.152344 -2.375 38.148438 -2.96875 C 40.199219 -3.613281 41.386719 -5.503906 41.386719 -8.148438 C 41.332031 -8.363281 41.277344 -8.578125 41.222656 -8.796875 Z M 17.320312 -20.933594 L 21.636719 -32.75 L 27.410156 -20.933594 Z M 17.320312 -20.933594 "/></g></g></g><g fill="#fafbfd" fill-opacity="1"><g transform="translate(166.84652, 145.087744)"><g><path d="M 40.414062 -38.578125 C 39.980469 -40.628906 38.523438 -42.085938 36.636719 -42.300781 C 34.585938 -42.570312 32.75 -41.4375 31.996094 -39.550781 C 31.402344 -38.039062 31.023438 -36.421875 30.972656 -34.910156 C 30.753906 -30.753906 30.648438 -26.546875 30.539062 -22.445312 C 30.484375 -20.773438 30.429688 -19.101562 30.378906 -17.429688 C 30.378906 -16.996094 30.324219 -16.566406 30.324219 -16.132812 L 30.269531 -15.160156 L 28.867188 -14.621094 L 26.222656 -18.074219 C 24.441406 -20.339844 22.714844 -22.554688 20.988281 -24.820312 C 20.019531 -26.113281 19.046875 -27.464844 18.023438 -28.757812 C 16.296875 -31.078125 14.515625 -33.453125 12.679688 -35.71875 C 11.925781 -36.746094 10.898438 -37.609375 9.765625 -38.253906 C 9.011719 -38.6875 8.148438 -38.957031 7.339844 -38.957031 C 6.851562 -38.957031 6.367188 -38.847656 5.882812 -38.6875 C 4.585938 -38.253906 3.5625 -37.230469 2.96875 -35.828125 C 2.644531 -34.964844 2.429688 -34.15625 2.375 -33.398438 C 1.617188 -24.710938 1.886719 -15.429688 3.238281 -4.207031 C 3.34375 -3.398438 3.667969 -2.480469 4.207031 -1.617188 C 4.800781 -0.648438 5.71875 -0.109375 6.582031 -0.160156 C 7.5 -0.214844 8.308594 -0.863281 8.847656 -1.886719 C 9.226562 -2.699219 9.496094 -3.613281 9.496094 -4.371094 C 9.710938 -8.902344 9.875 -13.488281 10.035156 -17.914062 L 10.144531 -21.476562 C 10.199219 -21.851562 10.144531 -22.285156 10.144531 -22.660156 L 10.144531 -24.441406 L 11.113281 -23.742188 C 11.871094 -23.148438 12.355469 -22.5 12.734375 -21.90625 L 13.003906 -21.582031 C 13.757812 -20.503906 14.515625 -19.371094 15.324219 -18.292969 C 17.160156 -15.648438 19.101562 -12.894531 21.203125 -10.46875 C 22.984375 -8.363281 25.738281 -5.394531 28.976562 -3.5625 C 32.105469 -1.78125 34.800781 -1.402344 36.796875 -2.480469 C 38.792969 -3.613281 39.929688 -6.203125 40.089844 -9.875 C 40.359375 -16.835938 40.46875 -23.902344 40.628906 -30.753906 L 40.683594 -35.179688 C 40.738281 -36.367188 40.628906 -37.5 40.414062 -38.578125 Z M 40.414062 -38.578125 "/></g></g></g><g fill="#fafbfd" fill-opacity="1"><g transform="translate(209.600964, 145.087744)"><g><path d="M 34.207031 -15.324219 C 33.9375 -18.667969 32.320312 -21.746094 29.675781 -23.957031 C 29.082031 -24.496094 28.488281 -24.929688 27.734375 -25.46875 C 27.355469 -25.738281 26.976562 -26.0625 26.546875 -26.386719 L 25.953125 -26.871094 L 26.546875 -27.300781 C 26.816406 -27.519531 27.03125 -27.679688 27.25 -27.839844 C 27.679688 -28.113281 28.003906 -28.382812 28.273438 -28.652344 C 31.1875 -31.726562 31.78125 -35.289062 30 -39.011719 C 28.003906 -43.164062 24.441406 -45.378906 19.75 -45.378906 C 19.53125 -45.378906 19.316406 -45.378906 19.101562 -45.378906 C 15.160156 -45.214844 11.0625 -44.566406 6.90625 -43.542969 C 5.503906 -43.164062 4.15625 -41.816406 2.96875 -40.574219 L 2.480469 -40.144531 C 2.105469 -39.765625 1.941406 -39.28125 1.996094 -38.847656 C 2.050781 -38.523438 2.265625 -38.203125 2.644531 -37.929688 C 3.886719 -37.230469 3.832031 -36.257812 3.832031 -35.394531 L 3.832031 -35.179688 C 3.777344 -31.671875 3.722656 -28.113281 3.613281 -24.605469 C 3.5625 -20.179688 3.507812 -15.753906 3.398438 -11.332031 C 3.398438 -10.035156 3.238281 -8.847656 2.914062 -7.714844 C 2.480469 -5.933594 2.859375 -4.53125 4.046875 -3.5625 C 5.394531 -2.429688 6.796875 -1.617188 8.09375 -1.1875 C 14.621094 1.023438 21.257812 0.214844 28.542969 -3.722656 C 29.40625 -4.207031 30.324219 -5.019531 31.292969 -6.152344 C 33.453125 -8.742188 34.476562 -11.976562 34.207031 -15.324219 Z M 11.4375 -29.890625 C 11.386719 -31.457031 11.277344 -32.375 11.222656 -33.292969 C 11.167969 -34.207031 11.0625 -35.179688 11.007812 -36.746094 L 10.953125 -37.230469 L 11.386719 -37.339844 C 15.109375 -38.6875 16.402344 -38.632812 18.292969 -38.523438 C 19.476562 -38.363281 20.613281 -38.09375 21.203125 -37.824219 C 21.90625 -37.5 22.285156 -37.015625 22.5 -36.476562 C 22.824219 -35.449219 22.230469 -34.371094 21.851562 -33.5625 L 21.582031 -33.238281 C 21.042969 -32.644531 20.289062 -31.78125 18.238281 -31.023438 C 16.886719 -30.484375 15.539062 -30.160156 14.136719 -29.839844 C 13.488281 -29.675781 12.839844 -29.566406 12.195312 -29.351562 L 11.492188 -29.191406 Z M 25.953125 -14.136719 C 25.738281 -12.570312 24.710938 -11.222656 23.039062 -10.414062 C 20.394531 -9.117188 17.699219 -8.472656 15 -8.472656 C 14.515625 -8.472656 14.082031 -8.472656 13.597656 -8.523438 C 12.140625 -8.632812 11.492188 -9.386719 11.601562 -10.84375 C 11.65625 -11.816406 11.65625 -12.789062 11.601562 -13.757812 C 11.601562 -14.027344 11.601562 -14.246094 11.601562 -14.460938 L 11.546875 -15.054688 L 11.546875 -16.296875 C 11.546875 -17.375 11.546875 -18.453125 11.601562 -19.53125 C 11.601562 -20.019531 12.085938 -21.257812 12.789062 -21.3125 L 13.867188 -21.367188 C 17.320312 -21.636719 20.933594 -21.90625 24.011719 -18.992188 C 25.523438 -17.589844 26.222656 -15.808594 25.953125 -14.136719 Z M 25.953125 -14.136719 "/></g></g></g><g fill="#fafbfd" fill-opacity="1"><g transform="translate(245.885619, 145.087744)"><g><path d="M 41.222656 -8.796875 C 41.0625 -9.550781 40.898438 -10.46875 40.628906 -11.332031 C 37.660156 -21.476562 32.535156 -30.648438 27.519531 -39.117188 C 26.277344 -41.222656 24.660156 -42.25 22.824219 -42.25 C 21.746094 -42.25 20.613281 -41.925781 19.371094 -41.222656 C 17.859375 -40.304688 16.566406 -39.171875 15.808594 -38.039062 C 14.191406 -35.71875 12.839844 -33.128906 11.761719 -30.863281 C 9.820312 -26.816406 8.308594 -23.417969 7.015625 -20.179688 C 5.019531 -15.160156 3.507812 -10.898438 2.210938 -6.851562 C 1.457031 -4.585938 2.644531 -2.75 4.046875 -2.105469 C 5.773438 -1.402344 7.445312 -2.160156 8.6875 -4.207031 C 9.28125 -5.234375 9.820312 -6.3125 10.359375 -7.390625 C 10.84375 -8.363281 11.386719 -9.441406 11.976562 -10.414062 C 12.355469 -11.113281 13.382812 -11.816406 14.136719 -11.816406 C 16.941406 -11.761719 19.75 -11.65625 22.5 -11.546875 C 24.550781 -11.4375 26.65625 -11.386719 28.703125 -11.277344 C 30.59375 -11.222656 31.132812 -10.144531 31.457031 -9.011719 C 31.886719 -7.390625 32.375 -6.152344 32.96875 -5.125 C 34.101562 -3.183594 36.152344 -2.375 38.148438 -2.96875 C 40.199219 -3.613281 41.386719 -5.503906 41.386719 -8.148438 C 41.332031 -8.363281 41.277344 -8.578125 41.222656 -8.796875 Z M 17.320312 -20.933594 L 21.636719 -32.75 L 27.410156 -20.933594 Z M 17.320312 -20.933594 "/></g></g></g><g fill="#fafbfd" fill-opacity="1"><g transform="translate(289.287049, 145.087744)"><g><path d="M 40.414062 -38.578125 C 39.980469 -40.628906 38.523438 -42.085938 36.636719 -42.300781 C 34.585938 -42.570312 32.75 -41.4375 31.996094 -39.550781 C 31.402344 -38.039062 31.023438 -36.421875 30.972656 -34.910156 C 30.753906 -30.753906 30.648438 -26.546875 30.539062 -22.445312 C 30.484375 -20.773438 30.429688 -19.101562 30.378906 -17.429688 C 30.378906 -16.996094 30.324219 -16.566406 30.324219 -16.132812 L 30.269531 -15.160156 L 28.867188 -14.621094 L 26.222656 -18.074219 C 24.441406 -20.339844 22.714844 -22.554688 20.988281 -24.820312 C 20.019531 -26.113281 19.046875 -27.464844 18.023438 -28.757812 C 16.296875 -31.078125 14.515625 -33.453125 12.679688 -35.71875 C 11.925781 -36.746094 10.898438 -37.609375 9.765625 -38.253906 C 9.011719 -38.6875 8.148438 -38.957031 7.339844 -38.957031 C 6.851562 -38.957031 6.367188 -38.847656 5.882812 -38.6875 C 4.585938 -38.253906 3.5625 -37.230469 2.96875 -35.828125 C 2.644531 -34.964844 2.429688 -34.15625 2.375 -33.398438 C 1.617188 -24.710938 1.886719 -15.429688 3.238281 -4.207031 C 3.34375 -3.398438 3.667969 -2.480469 4.207031 -1.617188 C 4.800781 -0.648438 5.71875 -0.109375 6.582031 -0.160156 C 7.5 -0.214844 8.308594 -0.863281 8.847656 -1.886719 C 9.226562 -2.699219 9.496094 -3.613281 9.496094 -4.371094 C 9.710938 -8.902344 9.875 -13.488281 10.035156 -17.914062 L 10.144531 -21.476562 C 10.199219 -21.851562 10.144531 -22.285156 10.144531 -22.660156 L 10.144531 -24.441406 L 11.113281 -23.742188 C 11.871094 -23.148438 12.355469 -22.5 12.734375 -21.90625 L 13.003906 -21.582031 C 13.757812 -20.503906 14.515625 -19.371094 15.324219 -18.292969 C 17.160156 -15.648438 19.101562 -12.894531 21.203125 -10.46875 C 22.984375 -8.363281 25.738281 -5.394531 28.976562 -3.5625 C 32.105469 -1.78125 34.800781 -1.402344 36.796875 -2.480469 C 38.792969 -3.613281 39.929688 -6.203125 40.089844 -9.875 C 40.359375 -16.835938 40.46875 -23.902344 40.628906 -30.753906 L 40.683594 -35.179688 C 40.738281 -36.367188 40.628906 -37.5 40.414062 -38.578125 Z M 40.414062 -38.578125 "/></g></g></g><g fill="#fafbfd" fill-opacity="1"><g transform="translate(332.041493, 145.087744)"><g/></g></g><g fill="#fafbfd" fill-opacity="1"><g transform="translate(347.51503, 145.087744)"><g><path d="M 34.207031 -15.324219 C 33.9375 -18.667969 32.320312 -21.746094 29.675781 -23.957031 C 29.082031 -24.496094 28.488281 -24.929688 27.734375 -25.46875 C 27.355469 -25.738281 26.976562 -26.0625 26.546875 -26.386719 L 25.953125 -26.871094 L 26.546875 -27.300781 C 26.816406 -27.519531 27.03125 -27.679688 27.25 -27.839844 C 27.679688 -28.113281 28.003906 -28.382812 28.273438 -28.652344 C 31.1875 -31.726562 31.78125 -35.289062 30 -39.011719 C 28.003906 -43.164062 24.441406 -45.378906 19.75 -45.378906 C 19.53125 -45.378906 19.316406 -45.378906 19.101562 -45.378906 C 15.160156 -45.214844 11.0625 -44.566406 6.90625 -43.542969 C 5.503906 -43.164062 4.15625 -41.816406 2.96875 -40.574219 L 2.480469 -40.144531 C 2.105469 -39.765625 1.941406 -39.28125 1.996094 -38.847656 C 2.050781 -38.523438 2.265625 -38.203125 2.644531 -37.929688 C 3.886719 -37.230469 3.832031 -36.257812 3.832031 -35.394531 L 3.832031 -35.179688 C 3.777344 -31.671875 3.722656 -28.113281 3.613281 -24.605469 C 3.5625 -20.179688 3.507812 -15.753906 3.398438 -11.332031 C 3.398438 -10.035156 3.238281 -8.847656 2.914062 -7.714844 C 2.480469 -5.933594 2.859375 -4.53125 4.046875 -3.5625 C 5.394531 -2.429688 6.796875 -1.617188 8.09375 -1.1875 C 14.621094 1.023438 21.257812 0.214844 28.542969 -3.722656 C 29.40625 -4.207031 30.324219 -5.019531 31.292969 -6.152344 C 33.453125 -8.742188 34.476562 -11.976562 34.207031 -15.324219 Z M 11.4375 -29.890625 C 11.386719 -31.457031 11.277344 -32.375 11.222656 -33.292969 C 11.167969 -34.207031 11.0625 -35.179688 11.007812 -36.746094 L 10.953125 -37.230469 L 11.386719 -37.339844 C 15.109375 -38.6875 16.402344 -38.632812 18.292969 -38.523438 C 19.476562 -38.363281 20.613281 -38.09375 21.203125 -37.824219 C 21.90625 -37.5 22.285156 -37.015625 22.5 -36.476562 C 22.824219 -35.449219 22.230469 -34.371094 21.851562 -33.5625 L 21.582031 -33.238281 C 21.042969 -32.644531 20.289062 -31.78125 18.238281 -31.023438 C 16.886719 -30.484375 15.539062 -30.160156 14.136719 -29.839844 C 13.488281 -29.675781 12.839844 -29.566406 12.195312 -29.351562 L 11.492188 -29.191406 Z M 25.953125 -14.136719 C 25.738281 -12.570312 24.710938 -11.222656 23.039062 -10.414062 C 20.394531 -9.117188 17.699219 -8.472656 15 -8.472656 C 14.515625 -8.472656 14.082031 -8.472656 13.597656 -8.523438 C 12.140625 -8.632812 11.492188 -9.386719 11.601562 -10.84375 C 11.65625 -11.816406 11.65625 -12.789062 11.601562 -13.757812 C 11.601562 -14.027344 11.601562 -14.246094 11.601562 -14.460938 L 11.546875 -15.054688 L 11.546875 -16.296875 C 11.546875 -17.375 11.546875 -18.453125 11.601562 -19.53125 C 11.601562 -20.019531 12.085938 -21.257812 12.789062 -21.3125 L 13.867188 -21.367188 C 17.320312 -21.636719 20.933594 -21.90625 24.011719 -18.992188 C 25.523438 -17.589844 26.222656 -15.808594 25.953125 -14.136719 Z M 25.953125 -14.136719 "/></g></g></g><g fill="#fafbfd" fill-opacity="1"><g transform="translate(383.799685, 145.087744)"><g><path d="M 22.929688 -40.199219 C 22.660156 -40.25 22.390625 -40.25 22.066406 -40.25 C 21.527344 -40.25 20.933594 -40.199219 20.339844 -40.089844 L 19.800781 -40.035156 C 11.4375 -38.957031 5.933594 -34.261719 2.96875 -25.683594 C 1.1875 -20.558594 1.78125 -14.136719 4.476562 -9.386719 C 6.90625 -5.179688 10.898438 -2.375 15.972656 -1.347656 L 16.132812 -1.296875 C 16.941406 -1.132812 17.75 -0.972656 18.5625 -0.863281 C 24.171875 -0.214844 28.597656 -1.835938 32.050781 -5.933594 L 33.128906 -7.121094 C 33.992188 -8.148438 34.910156 -9.226562 35.773438 -10.25 C 38.203125 -13.164062 39.550781 -16.78125 39.980469 -21.691406 C 39.28125 -33.886719 32.644531 -37.878906 22.929688 -40.199219 Z M 30.160156 -20.828125 C 29.945312 -20.339844 29.730469 -19.855469 29.515625 -19.316406 C 28.976562 -18.128906 28.433594 -16.941406 27.734375 -15.753906 C 27.25 -14.945312 26.601562 -14.296875 26.007812 -13.652344 C 25.738281 -13.382812 25.46875 -13.113281 25.25 -12.839844 C 23.742188 -11.222656 21.691406 -10.304688 19.476562 -10.304688 C 18.9375 -10.304688 18.453125 -10.359375 17.914062 -10.46875 C 15.054688 -11.007812 12.734375 -13.003906 11.707031 -15.753906 C 10.199219 -19.964844 10.898438 -23.957031 13.867188 -28.382812 C 15.753906 -31.242188 17.859375 -31.726562 20.988281 -30.109375 C 22.175781 -29.515625 23.417969 -28.921875 24.980469 -28.328125 C 28.382812 -26.925781 29.785156 -25.035156 30.214844 -21.152344 L 30.214844 -20.988281 Z M 30.160156 -20.828125 "/></g></g></g><g fill="#fafbfd" fill-opacity="1"><g transform="translate(425.799303, 145.087744)"><g><path d="M 41.222656 -8.796875 C 41.0625 -9.550781 40.898438 -10.46875 40.628906 -11.332031 C 37.660156 -21.476562 32.535156 -30.648438 27.519531 -39.117188 C 26.277344 -41.222656 24.660156 -42.25 22.824219 -42.25 C 21.746094 -42.25 20.613281 -41.925781 19.371094 -41.222656 C 17.859375 -40.304688 16.566406 -39.171875 15.808594 -38.039062 C 14.191406 -35.71875 12.839844 -33.128906 11.761719 -30.863281 C 9.820312 -26.816406 8.308594 -23.417969 7.015625 -20.179688 C 5.019531 -15.160156 3.507812 -10.898438 2.210938 -6.851562 C 1.457031 -4.585938 2.644531 -2.75 4.046875 -2.105469 C 5.773438 -1.402344 7.445312 -2.160156 8.6875 -4.207031 C 9.28125 -5.234375 9.820312 -6.3125 10.359375 -7.390625 C 10.84375 -8.363281 11.386719 -9.441406 11.976562 -10.414062 C 12.355469 -11.113281 13.382812 -11.816406 14.136719 -11.816406 C 16.941406 -11.761719 19.75 -11.65625 22.5 -11.546875 C 24.550781 -11.4375 26.65625 -11.386719 28.703125 -11.277344 C 30.59375 -11.222656 31.132812 -10.144531 31.457031 -9.011719 C 31.886719 -7.390625 32.375 -6.152344 32.96875 -5.125 C 34.101562 -3.183594 36.152344 -2.375 38.148438 -2.96875 C 40.199219 -3.613281 41.386719 -5.503906 41.386719 -8.148438 C 41.332031 -8.363281 41.277344 -8.578125 41.222656 -8.796875 Z M 17.320312 -20.933594 L 21.636719 -32.75 L 27.410156 -20.933594 Z M 17.320312 -20.933594 "/></g></g></g><g fill="#fafbfd" fill-opacity="1"><g transform="translate(469.200732, 145.087744)"><g><path d="M 31.402344 -11.113281 C 29.675781 -12.085938 28.058594 -13.113281 26.332031 -14.191406 C 25.574219 -14.675781 24.765625 -15.160156 24.011719 -15.648438 L 23.203125 -16.132812 L 24.011719 -16.671875 C 24.605469 -16.996094 25.144531 -17.375 25.683594 -17.699219 C 26.761719 -18.34375 27.789062 -18.992188 28.703125 -19.695312 C 32.644531 -22.714844 34.101562 -26.546875 33.183594 -31.023438 C 32.160156 -35.828125 29.082031 -39.011719 24.335938 -40.144531 C 19.855469 -41.222656 15.59375 -41.007812 11.707031 -39.441406 C 11.386719 -39.335938 10.46875 -39.011719 9.660156 -39.28125 C 8.796875 -39.605469 8.039062 -39.765625 7.445312 -39.765625 C 6.90625 -39.765625 6.421875 -39.605469 6.042969 -39.386719 C 5.234375 -38.957031 4.695312 -37.929688 4.371094 -36.367188 C 2.210938 -24.980469 1.511719 -14.675781 2.265625 -4.964844 C 2.429688 -2.429688 3.886719 -0.753906 5.933594 -0.703125 C 8.09375 -0.648438 9.496094 -2.210938 9.820312 -4.800781 C 10.035156 -6.257812 10.144531 -7.769531 10.304688 -9.335938 L 10.628906 -12.464844 L 11.386719 -12.085938 C 11.65625 -11.925781 11.925781 -11.816406 12.140625 -11.707031 C 12.570312 -11.492188 12.949219 -11.332031 13.273438 -11.113281 C 14.460938 -10.46875 15.59375 -9.765625 16.726562 -9.066406 C 18.886719 -7.714844 21.097656 -6.367188 23.308594 -5.070312 C 24.980469 -4.101562 26.707031 -3.128906 28.488281 -2.644531 C 30.917969 -1.941406 33.398438 -3.238281 34.207031 -5.613281 C 35.125 -8.417969 33.183594 -10.144531 31.402344 -11.113281 Z M 11.761719 -23.578125 L 11.007812 -23.472656 L 11.0625 -24.226562 C 11.167969 -24.875 11.167969 -25.574219 11.113281 -26.222656 C 11.113281 -28.21875 11.0625 -30.269531 13.273438 -31.78125 C 16.078125 -33.613281 19.261719 -33.9375 22.824219 -32.75 C 23.957031 -32.375 24.660156 -31.617188 24.765625 -30.703125 C 24.929688 -29.675781 24.386719 -28.597656 23.308594 -27.894531 C 20.019531 -25.574219 16.242188 -24.171875 11.761719 -23.578125 Z M 11.761719 -23.578125 "/></g></g></g><g fill="#fafbfd" fill-opacity="1"><g transform="translate(505.647149, 145.087744)"><g><path d="M 29.515625 -35.503906 C 25.792969 -39.117188 20.71875 -40.953125 15.269531 -40.792969 L 14.785156 -40.738281 L 14.675781 -41.0625 C 14.082031 -40.953125 13.542969 -40.84375 12.949219 -40.738281 C 11.277344 -40.359375 9.550781 -39.980469 7.933594 -39.496094 C 4.910156 -38.523438 4.371094 -37.714844 4.261719 -34.425781 C 4.207031 -31.347656 4.15625 -28.21875 4.15625 -25.089844 C 4.046875 -20.558594 3.992188 -16.023438 3.886719 -11.4375 C 3.886719 -10.304688 3.453125 -9.011719 2.804688 -7.933594 C 2.050781 -6.636719 1.78125 -5.234375 2.105469 -3.992188 C 2.375 -2.96875 3.023438 -2.105469 3.992188 -1.566406 C 5.503906 -0.703125 7.339844 -0.214844 8.902344 -0.324219 C 15.917969 -0.648438 22.5 -2.96875 28.382812 -7.339844 C 33.023438 -10.738281 35.394531 -15.378906 35.394531 -21.257812 C 35.394531 -26.707031 33.238281 -31.886719 29.515625 -35.503906 Z M 21.636719 -15.59375 C 19.964844 -14.566406 18.238281 -13.703125 16.347656 -12.789062 C 15.484375 -12.355469 14.566406 -11.925781 13.652344 -11.4375 L 12.839844 -11.0625 L 11.871094 -32.75 L 12.570312 -32.644531 C 13.058594 -32.589844 13.597656 -32.535156 14.082031 -32.480469 C 16.566406 -32.160156 19.101562 -31.886719 21.367188 -30.484375 C 23.957031 -28.921875 25.523438 -26.113281 25.574219 -22.984375 C 25.574219 -19.910156 24.117188 -17.160156 21.636719 -15.59375 Z M 21.636719 -15.59375 "/></g></g></g><g fill="#fafbfd" fill-opacity="1"><g transform="translate(543.123676, 145.087744)"><g/></g></g><g clip-path="url(#46ebe97c1d)"><path fill="#89b8db" d="M 53.320312 204.144531 C 53.320312 204.144531 53.496094 203.609375 53.835938 202.578125 C 54.011719 202.0625 54.214844 201.417969 54.480469 200.65625 C 54.777344 199.902344 55.136719 199.035156 55.546875 198.039062 C 55.738281 197.535156 55.996094 197.03125 56.253906 196.492188 C 56.515625 195.953125 56.792969 195.386719 57.082031 194.792969 C 57.15625 194.644531 57.226562 194.492188 57.304688 194.339844 C 57.386719 194.195312 57.472656 194.046875 57.558594 193.898438 C 57.730469 193.597656 57.910156 193.292969 58.089844 192.976562 C 58.269531 192.664062 58.453125 192.34375 58.644531 192.015625 C 58.832031 191.683594 59.023438 191.351562 59.25 191.027344 C 60.917969 188.359375 63.15625 185.449219 66.070312 182.511719 C 68.976562 179.574219 72.613281 176.667969 76.960938 174.101562 C 81.300781 171.535156 86.335938 169.289062 91.902344 167.617188 C 92.597656 167.410156 93.300781 167.203125 94.007812 166.992188 C 94.71875 166.789062 95.4375 166.617188 96.164062 166.433594 C 97.613281 166.046875 99.097656 165.753906 100.605469 165.433594 C 101.359375 165.261719 102.117188 165.148438 102.882812 165.007812 C 103.648438 164.878906 104.421875 164.734375 105.203125 164.617188 C 105.984375 164.507812 106.769531 164.402344 107.558594 164.292969 C 107.953125 164.242188 108.351562 164.1875 108.75 164.132812 C 109.148438 164.089844 109.546875 164.050781 109.945312 164.007812 C 116.363281 163.296875 123.128906 163.074219 130.125 163.300781 C 144.136719 163.71875 159.066406 165.871094 174.480469 169.222656 C 189.902344 172.566406 205.816406 177.148438 221.941406 182.460938 C 225.96875 183.800781 230.023438 185.152344 234.074219 186.566406 C 238.105469 187.984375 242.164062 189.414062 246.25 190.855469 C 250.3125 192.308594 254.371094 193.769531 258.410156 195.183594 C 260.433594 195.890625 262.433594 196.597656 264.425781 197.269531 C 266.480469 197.957031 268.542969 198.644531 270.605469 199.332031 C 274.808594 200.75 278.878906 202.0625 283.015625 203.414062 C 285.066406 204.101562 287.164062 204.734375 289.242188 205.390625 C 291.328125 206.054688 293.410156 206.714844 295.496094 207.375 C 297.589844 208.007812 299.679688 208.644531 301.773438 209.277344 L 304.914062 210.234375 L 308.0625 211.152344 C 310.164062 211.765625 312.261719 212.378906 314.363281 212.992188 C 316.460938 213.605469 318.574219 214.152344 320.679688 214.738281 L 323.832031 215.613281 L 325.414062 216.054688 L 326.992188 216.460938 C 329.101562 217.007812 331.210938 217.554688 333.316406 218.097656 C 334.371094 218.363281 335.421875 218.65625 336.480469 218.902344 L 339.644531 219.660156 C 341.753906 220.167969 343.863281 220.679688 345.96875 221.191406 C 348.078125 221.648438 350.1875 222.113281 352.292969 222.574219 C 353.34375 222.808594 354.398438 223.042969 355.449219 223.273438 C 356.503906 223.523438 357.554688 223.707031 358.605469 223.921875 C 360.714844 224.339844 362.816406 224.757812 364.917969 225.175781 L 366.488281 225.488281 L 368.0625 225.761719 C 369.113281 225.945312 370.164062 226.128906 371.207031 226.3125 C 373.304688 226.675781 375.394531 227.074219 377.484375 227.40625 C 379.578125 227.71875 381.664062 228.027344 383.746094 228.339844 C 384.785156 228.5 385.828125 228.660156 386.863281 228.820312 C 387.898438 228.964844 388.941406 229.082031 389.976562 229.210938 C 392.054688 229.46875 394.121094 229.726562 396.1875 229.984375 C 397.214844 230.128906 398.246094 230.214844 399.28125 230.316406 C 400.308594 230.414062 401.335938 230.515625 402.363281 230.617188 C 403.386719 230.714844 404.414062 230.8125 405.4375 230.917969 L 406.972656 231.066406 L 407.738281 231.140625 L 408.503906 231.191406 C 410.542969 231.328125 412.578125 231.460938 414.605469 231.597656 C 415.617188 231.667969 416.628906 231.738281 417.640625 231.808594 C 418.652344 231.875 419.65625 231.886719 420.664062 231.929688 C 422.675781 232 424.679688 232.074219 426.675781 232.144531 C 427.171875 232.164062 427.671875 232.1875 428.171875 232.207031 L 428.355469 232.214844 C 428.445312 232.214844 428.265625 232.222656 428.433594 232.222656 L 428.820312 232.226562 L 429.597656 232.230469 C 430.632812 232.246094 431.660156 232.253906 432.6875 232.265625 C 433.746094 232.285156 434.675781 232.269531 435.636719 232.261719 C 436.597656 232.257812 437.554688 232.253906 438.507812 232.246094 C 440.449219 232.210938 442.398438 232.164062 444.332031 232.109375 C 446.261719 232.015625 448.183594 231.960938 450.09375 231.839844 C 451.046875 231.785156 452 231.730469 452.949219 231.667969 C 453.425781 231.644531 453.898438 231.613281 454.367188 231.585938 C 454.84375 231.550781 455.316406 231.511719 455.789062 231.476562 C 457.671875 231.320312 459.550781 231.199219 461.410156 230.992188 C 462.339844 230.902344 463.265625 230.808594 464.191406 230.71875 C 465.117188 230.640625 466.03125 230.511719 466.949219 230.40625 C 481.617188 228.710938 495.375 225.90625 507.84375 222.371094 C 514.082031 220.601562 520.003906 218.667969 525.5625 216.605469 C 531.121094 214.527344 536.320312 212.339844 541.15625 210.128906 C 545.996094 207.914062 550.414062 205.601562 554.492188 203.410156 C 558.527344 201.140625 562.222656 198.992188 565.472656 196.898438 C 566.292969 196.378906 567.085938 195.875 567.859375 195.382812 C 568.621094 194.875 569.351562 194.371094 570.066406 193.886719 C 570.785156 193.402344 571.480469 192.9375 572.152344 192.484375 C 572.828125 192.03125 573.453125 191.5625 574.074219 191.128906 C 574.6875 190.6875 575.28125 190.265625 575.847656 189.859375 C 576.136719 189.652344 576.414062 189.453125 576.683594 189.257812 C 576.957031 189.054688 577.21875 188.859375 577.476562 188.667969 C 578.503906 187.894531 579.441406 187.191406 580.277344 186.5625 C 581.125 185.941406 581.835938 185.347656 582.46875 184.855469 C 583.097656 184.355469 583.628906 183.9375 584.054688 183.601562 C 584.914062 182.929688 585.355469 182.582031 585.355469 182.582031 C 585.355469 182.582031 585.015625 183.027344 584.351562 183.894531 C 584.019531 184.324219 583.605469 184.863281 583.113281 185.5 C 582.621094 186.136719 582.050781 186.886719 581.367188 187.683594 C 580.683594 188.496094 579.925781 189.40625 579.085938 190.402344 C 578.675781 190.910156 578.21875 191.410156 577.738281 191.9375 C 577.257812 192.464844 576.761719 193.011719 576.246094 193.582031 C 575.726562 194.148438 575.195312 194.753906 574.625 195.351562 C 574.046875 195.949219 573.449219 196.5625 572.835938 197.195312 C 572.210938 197.824219 571.574219 198.484375 570.910156 199.148438 C 570.230469 199.796875 569.53125 200.46875 568.8125 201.160156 C 565.953125 203.9375 562.613281 206.835938 558.882812 209.90625 C 557.9375 210.652344 556.96875 211.417969 555.980469 212.191406 C 555.484375 212.578125 554.980469 212.964844 554.476562 213.363281 C 553.960938 213.738281 553.4375 214.125 552.910156 214.507812 C 551.859375 215.277344 550.792969 216.082031 549.6875 216.859375 C 548.570312 217.625 547.433594 218.40625 546.28125 219.199219 C 541.621094 222.316406 536.523438 225.4375 530.984375 228.464844 C 525.445312 231.480469 519.457031 234.371094 513.066406 237.085938 C 500.289062 242.515625 485.871094 247.148438 470.242188 250.425781 C 468.289062 250.855469 466.316406 251.230469 464.324219 251.597656 C 462.339844 251.988281 460.328125 252.292969 458.304688 252.632812 C 457.796875 252.71875 457.289062 252.800781 456.785156 252.882812 C 456.277344 252.953125 455.765625 253.03125 455.257812 253.101562 C 454.234375 253.25 453.210938 253.398438 452.179688 253.542969 C 450.125 253.828125 448.050781 254.050781 445.964844 254.304688 C 443.875 254.523438 441.785156 254.730469 439.660156 254.929688 C 438.582031 255.011719 437.496094 255.089844 436.414062 255.167969 C 435.332031 255.25 434.210938 255.335938 433.210938 255.386719 C 432.183594 255.445312 431.15625 255.503906 430.125 255.558594 L 429.347656 255.601562 L 428.960938 255.625 C 429 255.628906 428.691406 255.632812 428.648438 255.632812 L 428.445312 255.640625 C 427.910156 255.65625 427.371094 255.671875 426.832031 255.683594 C 424.679688 255.738281 422.511719 255.789062 420.339844 255.839844 C 402.933594 256.164062 384.988281 254.800781 367.039062 252.152344 C 358.054688 250.871094 349.09375 249.148438 340.140625 247.269531 C 331.226562 245.292969 322.320312 243.136719 313.53125 240.683594 C 304.71875 238.277344 296.023438 235.597656 287.40625 232.820312 C 283.109375 231.402344 278.839844 229.988281 274.582031 228.496094 C 270.335938 226.996094 266.03125 225.519531 261.953125 223.984375 C 259.871094 223.21875 257.789062 222.449219 255.714844 221.683594 C 253.589844 220.878906 251.484375 220.085938 249.425781 219.265625 C 245.300781 217.632812 241.265625 215.992188 237.273438 214.378906 C 229.304688 211.117188 221.5 207.9375 213.816406 204.882812 C 198.460938 198.78125 183.578125 193.253906 169.3125 188.757812 C 155.054688 184.257812 141.410156 180.761719 128.722656 178.777344 C 125.546875 178.257812 122.441406 177.898438 119.398438 177.566406 C 117.882812 177.4375 116.371094 177.269531 114.890625 177.195312 C 114.148438 177.148438 113.410156 177.101562 112.679688 177.054688 C 111.945312 177.023438 111.21875 177 110.496094 176.972656 C 104.707031 176.753906 99.25 177.042969 94.191406 177.726562 C 93.871094 177.765625 93.554688 177.804688 93.242188 177.847656 C 92.929688 177.902344 92.621094 177.953125 92.3125 178.007812 C 91.695312 178.117188 91.082031 178.222656 90.472656 178.328125 C 89.863281 178.433594 89.277344 178.582031 88.683594 178.703125 C 88.09375 178.835938 87.496094 178.941406 86.921875 179.097656 C 86.351562 179.253906 85.78125 179.402344 85.21875 179.554688 C 84.933594 179.628906 84.652344 179.703125 84.371094 179.777344 C 84.097656 179.867188 83.824219 179.953125 83.554688 180.039062 C 83.003906 180.214844 82.464844 180.386719 81.929688 180.554688 L 81.523438 180.683594 L 81.136719 180.828125 C 80.875 180.925781 80.617188 181.027344 80.359375 181.121094 C 76.226562 182.664062 72.601562 184.574219 69.515625 186.644531 C 69.128906 186.902344 68.742188 187.152344 68.367188 187.414062 C 68.007812 187.6875 67.652344 187.957031 67.304688 188.226562 C 66.949219 188.496094 66.601562 188.757812 66.261719 189.019531 C 65.914062 189.273438 65.609375 189.570312 65.289062 189.839844 C 64.972656 190.113281 64.660156 190.382812 64.351562 190.644531 C 64.042969 190.914062 63.722656 191.164062 63.453125 191.445312 C 62.886719 191.996094 62.335938 192.53125 61.808594 193.046875 C 61.535156 193.296875 61.292969 193.566406 61.058594 193.832031 C 60.816406 194.097656 60.582031 194.355469 60.355469 194.609375 C 60.121094 194.867188 59.898438 195.113281 59.675781 195.363281 C 59.453125 195.601562 59.234375 195.84375 59.042969 196.097656 C 58.644531 196.589844 58.265625 197.0625 57.902344 197.507812 C 57.539062 197.960938 57.183594 198.382812 56.898438 198.808594 C 56.292969 199.65625 55.757812 200.402344 55.296875 201.046875 C 54.859375 201.71875 54.503906 202.296875 54.210938 202.753906 C 53.625 203.671875 53.320312 204.144531 53.320312 204.144531 " fill-opacity="1" fill-rule="nonzero"/></g><g clip-path="url(#242317b732)"><path fill="#e3e3e3" d="M 334.066406 193.097656 C 334.066406 193.097656 335.191406 193.308594 337.296875 193.707031 C 339.398438 194.09375 342.472656 194.785156 346.371094 195.492188 C 347.34375 195.679688 348.375 195.863281 349.441406 196.078125 C 350.515625 196.28125 351.621094 196.53125 352.800781 196.71875 C 355.15625 197.109375 357.683594 197.585938 360.386719 198.066406 C 363.09375 198.503906 365.972656 198.96875 369.007812 199.460938 C 372.039062 199.894531 375.226562 200.351562 378.550781 200.828125 C 380.214844 201.027344 381.914062 201.234375 383.648438 201.441406 C 384.507812 201.546875 385.378906 201.65625 386.261719 201.761719 C 386.699219 201.820312 387.144531 201.871094 387.585938 201.925781 C 388.03125 201.96875 388.480469 202.007812 388.929688 202.050781 C 392.519531 202.355469 396.207031 202.816406 400.019531 203.039062 C 400.964844 203.105469 401.925781 203.175781 402.886719 203.246094 C 403.847656 203.3125 404.816406 203.40625 405.792969 203.453125 C 407.742188 203.535156 409.71875 203.625 411.707031 203.730469 C 412.707031 203.769531 413.707031 203.84375 414.710938 203.855469 C 415.714844 203.875 416.726562 203.894531 417.746094 203.910156 C 418.761719 203.929688 419.78125 203.949219 420.808594 203.96875 C 421.832031 203.980469 422.859375 204.039062 423.890625 204.007812 C 425.953125 203.984375 428.035156 203.964844 430.128906 203.945312 C 430.652344 203.941406 431.179688 203.9375 431.699219 203.933594 C 432.222656 203.910156 432.75 203.890625 433.273438 203.867188 C 434.324219 203.820312 435.382812 203.773438 436.441406 203.730469 C 438.554688 203.648438 440.683594 203.597656 442.8125 203.394531 C 444.941406 203.238281 447.082031 203.082031 449.234375 202.929688 C 457.804688 202.09375 466.445312 200.859375 474.992188 199.1875 L 478.21875 198.5 C 479.359375 198.273438 480.355469 198.019531 481.394531 197.777344 C 483.441406 197.308594 485.550781 196.742188 487.644531 196.210938 C 491.816406 195.058594 495.949219 193.828125 500 192.464844 C 501.015625 192.125 502.019531 191.757812 503.023438 191.410156 L 504.527344 190.882812 L 506.019531 190.320312 C 507.011719 189.941406 508.007812 189.59375 508.988281 189.199219 C 509.96875 188.808594 510.941406 188.417969 511.917969 188.03125 C 512.894531 187.644531 513.851562 187.21875 514.8125 186.820312 C 515.773438 186.414062 516.738281 186.015625 517.675781 185.578125 C 518.621094 185.15625 519.5625 184.734375 520.503906 184.3125 C 521.433594 183.871094 522.355469 183.433594 523.28125 182.996094 C 523.738281 182.773438 524.199219 182.554688 524.65625 182.335938 C 525.113281 182.105469 525.566406 181.878906 526.019531 181.648438 C 526.917969 181.195312 527.828125 180.753906 528.71875 180.289062 C 530.484375 179.339844 532.261719 178.4375 533.96875 177.460938 C 537.425781 175.5625 540.710938 173.546875 543.902344 171.550781 C 550.226562 167.484375 556.015625 163.300781 561.144531 159.125 C 562.417969 158.074219 563.660156 157.035156 564.875 156.011719 C 566.0625 154.960938 567.222656 153.933594 568.355469 152.929688 C 569.460938 151.902344 570.566406 150.914062 571.601562 149.921875 C 572.632812 148.914062 573.636719 147.9375 574.605469 146.992188 C 578.457031 143.167969 581.605469 139.59375 584.179688 136.605469 C 585.445312 135.097656 586.59375 133.75 587.539062 132.539062 C 588.496094 131.335938 589.332031 130.320312 589.964844 129.460938 C 591.277344 127.769531 591.972656 126.867188 591.972656 126.867188 C 591.972656 126.867188 591.867188 127.128906 591.664062 127.644531 C 591.460938 128.160156 591.164062 128.925781 590.753906 129.917969 C 590.542969 130.417969 590.335938 130.980469 590.058594 131.578125 C 589.78125 132.179688 589.484375 132.832031 589.160156 133.542969 C 588.824219 134.246094 588.5 135.027344 588.089844 135.820312 C 587.683594 136.621094 587.25 137.464844 586.792969 138.363281 C 584.914062 141.925781 582.476562 146.199219 579.265625 150.851562 C 578.46875 152.023438 577.597656 153.191406 576.71875 154.417969 C 575.824219 155.625 574.863281 156.835938 573.898438 158.105469 C 572.917969 159.359375 571.851562 160.589844 570.785156 161.882812 C 569.683594 163.140625 568.546875 164.421875 567.375 165.726562 C 562.617188 170.859375 557.078125 176.109375 550.777344 181.140625 C 547.609375 183.628906 544.296875 186.128906 540.769531 188.476562 C 537.265625 190.871094 533.574219 193.140625 529.742188 195.316406 C 528.777344 195.855469 527.8125 196.390625 526.839844 196.9375 C 525.855469 197.453125 524.867188 197.96875 523.875 198.492188 C 522.890625 199.015625 521.878906 199.507812 520.867188 200.003906 C 519.851562 200.492188 518.847656 201.015625 517.808594 201.476562 C 513.695312 203.40625 509.445312 205.164062 505.109375 206.808594 C 500.761719 208.417969 496.320312 209.886719 491.8125 211.191406 C 489.539062 211.804688 487.304688 212.453125 484.945312 212.996094 C 483.78125 213.273438 482.585938 213.574219 481.507812 213.800781 L 478.09375 214.539062 C 468.867188 216.335938 459.542969 217.503906 450.339844 218.089844 C 445.742188 218.242188 441.179688 218.492188 436.675781 218.378906 C 435.550781 218.363281 434.429688 218.351562 433.308594 218.335938 C 432.75 218.328125 432.191406 218.320312 431.632812 218.3125 C 431.082031 218.285156 430.527344 218.253906 429.972656 218.230469 C 427.753906 218.109375 425.558594 217.992188 423.375 217.875 C 422.289062 217.832031 421.207031 217.703125 420.132812 217.609375 C 419.058594 217.503906 417.984375 217.398438 416.921875 217.300781 C 415.855469 217.195312 414.796875 217.09375 413.742188 216.988281 C 412.6875 216.886719 411.648438 216.71875 410.609375 216.585938 C 408.535156 216.304688 406.484375 216.023438 404.464844 215.734375 C 402.441406 215.414062 400.460938 215.046875 398.503906 214.695312 C 397.527344 214.519531 396.558594 214.347656 395.589844 214.171875 L 394.871094 214.042969 L 394.152344 213.886719 C 393.679688 213.78125 393.203125 213.679688 392.734375 213.574219 C 390.847656 213.167969 388.996094 212.765625 387.171875 212.351562 C 386.71875 212.246094 386.265625 212.144531 385.816406 212.042969 C 385.371094 211.925781 384.921875 211.8125 384.476562 211.699219 C 383.589844 211.472656 382.714844 211.242188 381.835938 211.019531 C 380.097656 210.566406 378.390625 210.140625 376.726562 209.675781 C 375.070312 209.183594 373.453125 208.695312 371.871094 208.222656 C 370.292969 207.738281 368.738281 207.3125 367.253906 206.796875 C 365.769531 206.285156 364.324219 205.792969 362.914062 205.3125 C 361.507812 204.828125 360.140625 204.378906 358.832031 203.882812 C 356.222656 202.878906 353.777344 201.964844 351.535156 201.070312 C 349.296875 200.164062 347.253906 199.269531 345.414062 198.472656 C 344.5 198.074219 343.632812 197.695312 342.816406 197.335938 C 341.996094 196.984375 341.257812 196.605469 340.554688 196.277344 C 339.152344 195.617188 337.96875 195.035156 337.007812 194.566406 C 335.089844 193.605469 334.066406 193.097656 334.066406 193.097656 " fill-opacity="1" fill-rule="nonzero"/></g><path fill="#fafbfd" d="M 67.328125 208.367188 C 67.328125 208.367188 67.503906 208.289062 67.847656 208.136719 C 68.191406 207.988281 68.699219 207.757812 69.367188 207.480469 C 70.03125 207.195312 70.851562 206.84375 71.824219 206.449219 C 72.308594 206.25 72.828125 206.039062 73.382812 205.8125 C 73.949219 205.605469 74.554688 205.386719 75.191406 205.15625 C 76.464844 204.691406 77.886719 204.199219 79.441406 203.660156 C 80.996094 203.160156 82.695312 202.667969 84.507812 202.121094 C 84.964844 201.992188 85.421875 201.835938 85.894531 201.71875 C 86.367188 201.597656 86.847656 201.476562 87.335938 201.355469 C 88.3125 201.109375 89.316406 200.855469 90.347656 200.59375 C 90.867188 200.46875 91.386719 200.324219 91.921875 200.207031 C 92.453125 200.097656 92.996094 199.984375 93.542969 199.875 C 94.636719 199.644531 95.757812 199.417969 96.90625 199.179688 C 98.050781 198.921875 99.230469 198.757812 100.433594 198.554688 C 101.636719 198.363281 102.863281 198.167969 104.113281 197.96875 C 105.363281 197.804688 106.640625 197.660156 107.941406 197.503906 C 108.589844 197.425781 109.242188 197.351562 109.902344 197.277344 C 110.5625 197.195312 111.230469 197.160156 111.898438 197.101562 C 113.242188 196.996094 114.601562 196.894531 115.980469 196.785156 C 117.359375 196.683594 118.757812 196.65625 120.175781 196.601562 C 120.882812 196.574219 121.59375 196.546875 122.308594 196.523438 C 123.023438 196.488281 123.742188 196.515625 124.464844 196.507812 C 125.914062 196.511719 127.375 196.519531 128.84375 196.523438 C 134.734375 196.683594 140.820312 197.109375 146.960938 197.921875 C 153.09375 198.765625 159.28125 199.921875 165.390625 201.398438 C 171.488281 202.921875 177.5 204.742188 183.320312 206.796875 C 189.121094 208.886719 194.71875 211.226562 200.027344 213.695312 C 201.351562 214.320312 202.648438 214.96875 203.9375 215.601562 C 204.582031 215.917969 205.222656 216.234375 205.859375 216.546875 C 206.488281 216.882812 207.113281 217.210938 207.734375 217.539062 C 208.976562 218.195312 210.207031 218.84375 211.410156 219.503906 C 212.601562 220.183594 213.78125 220.855469 214.941406 221.515625 C 215.519531 221.847656 216.09375 222.179688 216.664062 222.511719 C 217.226562 222.851562 217.785156 223.195312 218.339844 223.53125 C 219.445312 224.210938 220.53125 224.878906 221.597656 225.539062 C 222.660156 226.210938 223.6875 226.890625 224.699219 227.558594 C 225.703125 228.234375 226.707031 228.863281 227.65625 229.539062 C 228.605469 230.210938 229.535156 230.863281 230.445312 231.503906 C 231.351562 232.148438 232.25 232.753906 233.085938 233.40625 C 233.929688 234.042969 234.753906 234.664062 235.554688 235.269531 C 236.347656 235.875 237.136719 236.441406 237.863281 237.046875 C 239.328125 238.234375 240.710938 239.324219 241.960938 240.367188 C 243.207031 241.421875 244.34375 242.398438 245.355469 243.292969 C 245.863281 243.734375 246.34375 244.15625 246.792969 244.554688 C 247.242188 244.953125 247.652344 245.347656 248.039062 245.703125 C 248.808594 246.417969 249.457031 247.035156 249.980469 247.535156 C 250.503906 248.03125 250.898438 248.425781 251.167969 248.6875 C 251.433594 248.949219 251.574219 249.085938 251.574219 249.085938 C 251.574219 249.085938 251.394531 249.003906 251.054688 248.847656 C 250.714844 248.6875 250.207031 248.460938 249.554688 248.148438 C 248.238281 247.542969 246.355469 246.589844 243.925781 245.441406 C 242.710938 244.871094 241.390625 244.203125 239.9375 243.507812 C 238.472656 242.832031 236.914062 242.0625 235.238281 241.261719 C 233.566406 240.472656 231.78125 239.632812 229.902344 238.75 C 228.027344 237.871094 226.046875 236.96875 223.988281 236.019531 C 221.921875 235.097656 219.769531 234.136719 217.542969 233.144531 C 216.425781 232.660156 215.289062 232.171875 214.136719 231.671875 C 213.5625 231.425781 212.980469 231.171875 212.398438 230.914062 C 211.8125 230.675781 211.21875 230.429688 210.625 230.183594 C 209.433594 229.6875 208.230469 229.179688 207.011719 228.671875 C 205.785156 228.183594 204.542969 227.6875 203.289062 227.1875 C 202.664062 226.9375 202.035156 226.6875 201.402344 226.429688 C 200.765625 226.1875 200.125 225.945312 199.484375 225.699219 C 198.199219 225.210938 196.90625 224.714844 195.597656 224.214844 C 190.351562 222.285156 184.90625 220.410156 179.34375 218.640625 C 173.761719 216.914062 168.066406 215.308594 162.328125 213.875 C 156.582031 212.480469 150.800781 211.273438 145.074219 210.25 C 139.34375 209.261719 133.667969 208.5 128.148438 207.882812 C 125.382812 207.652344 122.664062 207.335938 119.992188 207.1875 C 119.324219 207.140625 118.660156 207.09375 118 207.046875 C 117.335938 207.003906 116.679688 206.9375 116.023438 206.917969 C 114.714844 206.859375 113.417969 206.800781 112.144531 206.742188 C 110.863281 206.660156 109.601562 206.65625 108.355469 206.625 C 107.109375 206.589844 105.882812 206.5625 104.675781 206.53125 C 103.46875 206.535156 102.277344 206.535156 101.109375 206.539062 C 99.941406 206.539062 98.792969 206.515625 97.667969 206.550781 C 93.167969 206.621094 89.023438 206.792969 85.335938 206.992188 C 83.496094 207.105469 81.769531 207.230469 80.160156 207.304688 C 78.570312 207.4375 77.105469 207.566406 75.773438 207.660156 C 75.101562 207.707031 74.46875 207.753906 73.875 207.796875 C 73.277344 207.855469 72.71875 207.910156 72.199219 207.960938 C 71.15625 208.066406 70.265625 208.136719 69.542969 208.199219 C 68.824219 208.265625 68.269531 208.296875 67.894531 208.324219 C 67.523438 208.351562 67.328125 208.367188 67.328125 208.367188 " fill-opacity="1" fill-rule="nonzero"/></svg>